<svg xmlns="http://www.w3.org/2000/svg" style="width:0; height:0; visibility:hidden; display:none">
<symbol id="ico-add" viewBox="0 0 24 24"><g id="1---Elements" stroke="none" stroke-width="1" fill-rule="evenodd"> <g id="ico/add" fill-rule="nonzero"> <path d="M11.99,2 C6.47,2 2,6.48 2,12 C2,17.52 6.47,22 11.99,22 C17.52,22 22,17.52 22,12 C22,6.48 17.52,2 11.99,2 Z M12,20 C7.58,20 4,16.42 4,12 C4,7.58 7.58,4 12,4 C16.42,4 20,7.58 20,12 C20,16.42 16.42,20 12,20 Z M11,7 L13,7 L13,17 L11,17 L11,7 Z M7,13 L7,11 L17,11 L17,13 L7,13 Z" id="Shape" transform="translate(12.000000, 12.000000) rotate(-360.000000) translate(-12.000000, -12.000000) "/> </g> </g></symbol>
<symbol id="ico-close" viewBox="0 0 24 24"><g id="1---Elements" stroke="none" stroke-width="1" fill-rule="evenodd"> <g id="ico/close" fill-rule="nonzero"> <polygon id="Shape" points="20 5.61142857 18.3885714 4 12 10.3885714 5.61142857 4 4 5.61142857 10.3885714 12 4 18.3885714 5.61142857 20 12 13.6114286 18.3885714 20 20 18.3885714 13.6114286 12"/> </g> </g></symbol>
<symbol id="ico-delete" viewBox="0 0 24 24"><g id="1---Elements" stroke="none" stroke-width="1" fill-rule="evenodd"> <g id="ico/delete" fill-rule="nonzero"> <path d="M6,19 C6,20.1 6.9,21 8,21 L16,21 C17.1,21 18,20.1 18,19 L18,7 L6,7 L6,19 Z M8,9 L16,9 L16,19 L8,19 L8,9 Z M15.5,4 L14.5,3 L9.5,3 L8.5,4 L5,4 L5,6 L19,6 L19,4 L15.5,4 Z" id="Shape"/> </g> </g></symbol>
<symbol id="ico-duplicate" viewBox="0 0 24 24"><g id="1---Elements" stroke="none" stroke-width="1" fill-rule="evenodd"> <g id="ico/duplicate" fill-rule="nonzero"> <path d="M4.66666667,6 L3,6 L3,19.3333333 C3,20.25 3.75,21 4.66666667,21 L18,21 L18,19.3333333 L4.66666667,19.3333333 L4.66666667,6 Z M19.3333333,3 L7.66666667,3 C6.75,3 6,3.75 6,4.66666667 L6,16.3333333 C6,17.25 6.75,18 7.66666667,18 L19.3333333,18 C20.25,18 21,17.25 21,16.3333333 L21,4.66666667 C21,3.75 20.25,3 19.3333333,3 Z M19,16 L8,16 L8,5 L19,5 L19,16 Z" id="Shape"/> </g> </g></symbol>
<symbol id="ico-more" viewBox="0 0 24 24"><g id="1---Elements" stroke="none" stroke-width="1" fill-rule="evenodd"> <g id="ico/more" fill-rule="nonzero"> <path d="M12.5,7 C13.875,7 15,5.875 15,4.5 C15,3.125 13.875,2 12.5,2 C11.125,2 10,3.125 10,4.5 C10,5.875 11.125,7 12.5,7 Z M12.5,9.5 C11.125,9.5 10,10.625 10,12 C10,13.375 11.125,14.5 12.5,14.5 C13.875,14.5 15,13.375 15,12 C15,10.625 13.875,9.5 12.5,9.5 Z M12.5,17 C11.125,17 10,18.125 10,19.5 C10,20.875 11.125,22 12.5,22 C13.875,22 15,20.875 15,19.5 C15,18.125 13.875,17 12.5,17 Z" id="Shape" transform="translate(12.500000, 12.000000) rotate(-180.000000) translate(-12.500000, -12.000000) "/> </g> </g></symbol>
<symbol id="ico-plus" viewBox="0 0 24 24"><g id="1---Elements" stroke="none" stroke-width="1" fill-rule="evenodd"> <g id="ico/plus" fill-rule="nonzero"> <path d="M10.5,4 L13.5,4 L13.5,20 L10.5,20 L10.5,4 Z M4,13.5 L4,10.5 L20,10.5 L20,13.5 L4,13.5 Z" id="Shape" transform="translate(12.000000, 12.000000) rotate(-270.000000) translate(-12.000000, -12.000000) "/> </g> </g></symbol>
<symbol id="ico-sync" viewBox="0 0 24 24"><g id="1---Elements" stroke="none" stroke-width="1" fill-rule="evenodd"> <g id="ico/sync" fill-rule="nonzero"> <g id="baseline-sync-24px" transform="translate(12.000000, 12.000000) scale(1, -1) translate(-12.000000, -12.000000) translate(4.000000, 1.000000)"> <path d="M8,3 L8,0 L4,4 L8,8 L8,5 C11.31,5 14,7.69 14,11 C14,12.01 13.75,12.97 13.3,13.8 L14.76,15.26 C15.54,14.03 16,12.57 16,11 C16,6.58 12.42,3 8,3 Z M8,17 C4.69,17 2,14.31 2,11 C2,9.99 2.25,9.03 2.7,8.2 L1.24,6.74 C0.46,7.97 0,9.43 0,11 C0,15.42 3.58,19 8,19 L8,22 L12,18 L8,14 L8,17 Z" id="Shape"/> </g> </g> </g></symbol>
</svg>